<mxfile host="65bd71144e">
    <diagram id="TXBD-LZY1iGdPi2Dcbin" name="第 1 页">
        <mxGraphModel dx="793" dy="444" grid="1" gridSize="10" guides="1" tooltips="1" connect="1" arrows="1" fold="1" page="1" pageScale="1" pageWidth="827" pageHeight="1169" math="1" shadow="0">
            <root>
                <mxCell id="0"/>
                <mxCell id="1" parent="0"/>
                <mxCell id="2" value="\(a_0\)" style="rounded=0;whiteSpace=wrap;html=1;fontSize=19;fontFamily=Times New Roman;verticalAlign=top;horizontal=1;" parent="1" vertex="1">
                    <mxGeometry x="240" y="270" width="40" height="40" as="geometry"/>
                </mxCell>
                <mxCell id="3" value="\(a_1\)" style="rounded=0;whiteSpace=wrap;html=1;fontSize=19;fontFamily=Times New Roman;verticalAlign=top;horizontal=1;" parent="1" vertex="1">
                    <mxGeometry x="280" y="270" width="40" height="40" as="geometry"/>
                </mxCell>
                <mxCell id="4" value="\(\cdots\)" style="rounded=0;whiteSpace=wrap;html=1;fontSize=19;fontFamily=Times New Roman;verticalAlign=top;horizontal=1;" parent="1" vertex="1">
                    <mxGeometry x="320" y="270" width="40" height="40" as="geometry"/>
                </mxCell>
                <mxCell id="5" value="\(a_i\)" style="rounded=0;whiteSpace=wrap;html=1;fontSize=19;fontFamily=Times New Roman;verticalAlign=top;horizontal=1;" parent="1" vertex="1">
                    <mxGeometry x="360" y="270" width="40" height="40" as="geometry"/>
                </mxCell>
                <mxCell id="6" value="\(a_{i+1}\)" style="rounded=0;whiteSpace=wrap;html=1;fontSize=19;fontFamily=Times New Roman;verticalAlign=top;horizontal=1;" parent="1" vertex="1">
                    <mxGeometry x="400" y="270" width="40" height="40" as="geometry"/>
                </mxCell>
                <mxCell id="7" value="\(\cdots\)" style="rounded=0;whiteSpace=wrap;html=1;fontSize=19;fontFamily=Times New Roman;verticalAlign=top;horizontal=1;" parent="1" vertex="1">
                    <mxGeometry x="440" y="270" width="40" height="40" as="geometry"/>
                </mxCell>
                <mxCell id="8" value="\(a_{n-1}\)" style="rounded=0;whiteSpace=wrap;html=1;fontSize=19;fontFamily=Times New Roman;verticalAlign=top;horizontal=1;" parent="1" vertex="1">
                    <mxGeometry x="480" y="270" width="40" height="40" as="geometry"/>
                </mxCell>
                <mxCell id="9" value="" style="rounded=0;whiteSpace=wrap;html=1;fontSize=19;fontFamily=Times New Roman;verticalAlign=top;horizontal=1;" parent="1" vertex="1">
                    <mxGeometry x="520" y="270" width="40" height="40" as="geometry"/>
                </mxCell>
                <mxCell id="10" value="" style="rounded=0;whiteSpace=wrap;html=1;fontSize=19;fontFamily=Times New Roman;verticalAlign=top;horizontal=1;" parent="1" vertex="1">
                    <mxGeometry x="560" y="270" width="40" height="40" as="geometry"/>
                </mxCell>
                <mxCell id="11" value="" style="rounded=0;whiteSpace=wrap;html=1;fontSize=19;fontFamily=Times New Roman;verticalAlign=top;horizontal=1;" parent="1" vertex="1">
                    <mxGeometry x="600" y="270" width="40" height="40" as="geometry"/>
                </mxCell>
                <mxCell id="13" value="" style="endArrow=classic;html=1;fontFamily=Times New Roman;fontSize=19;" parent="1" edge="1">
                    <mxGeometry width="50" height="50" relative="1" as="geometry">
                        <mxPoint x="410" y="300" as="sourcePoint"/>
                        <mxPoint x="390" y="300" as="targetPoint"/>
                    </mxGeometry>
                </mxCell>
                <mxCell id="14" value="" style="endArrow=classic;html=1;fontFamily=Times New Roman;fontSize=19;" parent="1" edge="1">
                    <mxGeometry width="50" height="50" relative="1" as="geometry">
                        <mxPoint x="450" y="300" as="sourcePoint"/>
                        <mxPoint x="430" y="300" as="targetPoint"/>
                    </mxGeometry>
                </mxCell>
                <mxCell id="16" value="" style="endArrow=classic;html=1;fontFamily=Times New Roman;fontSize=19;" parent="1" edge="1">
                    <mxGeometry width="50" height="50" relative="1" as="geometry">
                        <mxPoint x="490" y="300" as="sourcePoint"/>
                        <mxPoint x="470" y="300" as="targetPoint"/>
                    </mxGeometry>
                </mxCell>
                <mxCell id="21" value="" style="endArrow=none;html=1;fontFamily=Times New Roman;fontSize=19;entryX=0;entryY=0;entryDx=0;entryDy=0;" parent="1" target="2" edge="1">
                    <mxGeometry width="50" height="50" relative="1" as="geometry">
                        <mxPoint x="240" y="240" as="sourcePoint"/>
                        <mxPoint x="440" y="250" as="targetPoint"/>
                    </mxGeometry>
                </mxCell>
                <mxCell id="22" value="" style="endArrow=none;html=1;fontFamily=Times New Roman;fontSize=19;entryX=0;entryY=0;entryDx=0;entryDy=0;" parent="1" target="8" edge="1">
                    <mxGeometry width="50" height="50" relative="1" as="geometry">
                        <mxPoint x="480" y="240" as="sourcePoint"/>
                        <mxPoint x="560" y="260" as="targetPoint"/>
                    </mxGeometry>
                </mxCell>
                <mxCell id="23" value="" style="endArrow=classic;startArrow=classic;html=1;fontFamily=Times New Roman;fontSize=19;" parent="1" edge="1">
                    <mxGeometry width="50" height="50" relative="1" as="geometry">
                        <mxPoint x="240" y="250" as="sourcePoint"/>
                        <mxPoint x="480" y="250" as="targetPoint"/>
                    </mxGeometry>
                </mxCell>
                <mxCell id="24" value="Current Length" style="edgeLabel;html=1;align=center;verticalAlign=middle;resizable=0;points=[];fontSize=19;fontFamily=Times New Roman;spacingLeft=0;spacingRight=0;spacing=2;" parent="23" vertex="1" connectable="0">
                    <mxGeometry x="-0.0645" y="-2" relative="1" as="geometry">
                        <mxPoint y="-2" as="offset"/>
                    </mxGeometry>
                </mxCell>
            </root>
        </mxGraphModel>
    </diagram>
</mxfile>